<svg height="464pt" viewBox="-56 0 464 464.40568" width="464pt" xmlns="http://www.w3.org/2000/svg"><path d="m328.660156 264.035156h-.058594c42.730469-73.96875 26.175782-167.9375-39.257812-222.851562-65.433594-54.910156-160.847656-54.910156-226.28125 0-65.433594 54.914062-81.988281 148.882812-39.257812 222.851562l.175781.265625c4.09375 7.050781 8.675781 13.8125 13.710937 20.230469l111.199219 164.054688h.105469c5.675781 9.792968 16.140625 15.820312 27.457031 15.820312 11.320313 0 21.78125-6.027344 27.460937-15.820312h.144532l111.289062-164.796876c4.722656-6.09375 9.042969-12.492187 12.925782-19.152343zm0 0" fill="#005e9c"/><path d="m320.195312 176.035156c0 79.527344-64.472656 144-144 144-79.53125 0-144-64.472656-144-144s64.46875-144 144-144c79.527344 0 144 64.472656 144 144zm0 0" fill="#168fba"/><path d="m264.195312 152.035156h-88l-48-48h88zm0 0" fill="#f29a2b"/><path d="m176.195312 152.035156h88v88h-88zm0 0" fill="#999798"/><path d="m88.195312 96.035156h16v64h-16zm0 0" fill="#f29a2b"/><path d="m208.195312 184.035156h32v24h-32zm0 0" fill="#ee3446"/><path d="m96.195312 142.433594 32-38.398438 48 48h-88zm0 0" fill="#de722a"/><path d="m176.195312 152.035156v88h-88v-88zm0 0" fill="#adabac"/><path d="m120.195312 192.035156h32v48h-32zm0 0" fill="#005e9c"/></svg>